<?xml version="1.0" encoding="utf-8"?>
<!-- Generator: Adobe Illustrator 18.1.1, SVG Export Plug-In . SVG Version: 6.00 Build 0)  -->
<svg version="1.1" id="Layer_1" xmlns="http://www.w3.org/2000/svg" xmlns:xlink="http://www.w3.org/1999/xlink" x="0px" y="0px"
	 viewBox="0 0 228 225" enable-background="new 0 0 228 225" xml:space="preserve">
<g>
	<path fill="#000319" d="M36.7,157.4L36.7,157.4l5.5-23.1H48l-7.8,31.4h-6.8l-5.4-21.3l-5.4,21.3h-6.7l-7.8-31.4h6l5.6,23.1
		l5.8-23.1h5.3L36.7,157.4z"/>
	<path fill="#000319" d="M74.4,158.2c0.3,2.6,2.3,4,5.2,4c2.1,0,3.8-0.7,3.8-2.3c0-1.5-1-2.1-3.1-2.5l-3.4-0.6c-4.5-0.7-7-2.5-7-6.6
		c0-4.2,3.4-7.1,8.8-7.1c5.8,0,9.3,2.7,9.7,7.6l-4.7,0.2c-0.4-2.5-2-3.7-5-3.7c-2.1,0-3.4,0.9-3.4,2.4c0,1.2,0.8,1.9,2.3,2.1l4,0.7
		c4.5,0.7,7.1,2.7,7.1,6.8c0,4.5-3.7,7-9.2,7c-5.5,0-9.7-2.5-10.1-7.9L74.4,158.2z"/>
	<path fill="#000319" d="M197.1,134.3v31.4h-5.7v-31.4H197.1z"/>
	<g>
		<path fill="#000319" d="M188.1,162.1c-0.9,0-1.5-0.5-1.5-1.7v-8.8c0-5.8-3.6-8.5-9.1-8.5c-5.6,0-8.9,3.1-9.6,7.6l5.2,0.5
			c0.5-2.1,1.8-3.6,4.2-3.6c2.4,0,3.7,1.5,3.7,3.9v0.7l-5.8,1c-4.8,1-8,2.7-8,6.9c0,3.8,2.7,6.1,7.1,6.1c3.1,0,6.5-1.6,7.2-3.1
			c0.4,1.6,2.1,3.1,4.5,3.1c1.2,0,2.1-0.2,2.9-0.5V162C188.6,162,188.3,162.1,188.1,162.1z M181,156.2c0,3.5-2.3,5.9-5.3,5.9
			c-1.8,0-2.9-0.9-2.9-2.4c0-2.2,1.8-2.6,4.3-3.2l4-0.7V156.2z"/>
	</g>
	<g>
		<path fill="#000319" d="M100.9,161.5c-1.7,0-2.5-0.8-2.5-2.7v-10.9h4.6v-4.2h-4.6v-6.1h-4c0,0-0.1,1.9-0.4,3
			c-0.3,1.1-0.9,3.1-2.9,3.5l-1.4,0.2v3.5h3v12.2c0,4.7,2.7,6.2,6,6.2c1.8,0,3.1-0.3,4.3-0.9v-4.3
			C102.2,161.4,101.5,161.5,100.9,161.5z"/>
	</g>
	<g>
		<path fill="#000319" d="M140,143.3c-2.9,0-5.1,2-5.9,4v-3.5h-5.7v22h5.7v-10.9c0-4,2-6.2,5-6.2c0.9,0,1.7,0.2,2.4,0.4l1.2-5.1
			C142.1,143.5,141.2,143.3,140,143.3z"/>
	</g>
	<g>
		<path fill="#000319" d="M57.3,161.8c-3.1,0-5.6-2.3-5.7-5.5h15.9v-2.1c0-6-3.5-11-10.4-11c-6.3,0-11.1,5-11.1,11.9
			c0,6.9,4.7,11.3,11.2,11.3c5.1,0,8.6-2.6,9.9-7l-4.6-0.9C61.6,160.6,60,161.8,57.3,161.8z M56.9,147.5c3.2,0,4.7,2.4,4.9,5H51.6
			C52.2,149.8,53.7,147.5,56.9,147.5z"/>
	</g>
	<g>
		<path fill="#000319" d="M115.5,161.8c-3.1,0-5.6-2.3-5.7-5.5h15.9v-2.1c0-6-3.5-11-10.4-11c-6.3,0-11.1,5-11.1,11.9
			c0,6.9,4.7,11.3,11.2,11.3c5.1,0,8.6-2.6,9.9-7l-4.6-0.9C119.8,160.6,118.2,161.8,115.5,161.8z M115.1,147.5c3.2,0,4.7,2.4,4.9,5
			h-10.2C110.4,149.8,111.9,147.5,115.1,147.5z"/>
	</g>
	<path fill="#000319" d="M205,158.2c0.3,2.6,2.3,4,5.2,4c2.1,0,3.8-0.7,3.8-2.3c0-1.5-1-2.1-3.1-2.5l-3.4-0.6c-4.5-0.7-7-2.5-7-6.6
		c0-4.2,3.4-7.1,8.8-7.1c5.8,0,9.3,2.7,9.7,7.6l-4.7,0.2c-0.4-2.5-2-3.7-5-3.7c-2.1,0-3.4,0.9-3.4,2.4c0,1.2,0.8,1.9,2.3,2.1l4,0.7
		c4.5,0.7,7.1,2.7,7.1,6.8c0,4.5-3.7,7-9.2,7c-5.5,0-9.7-2.5-10.1-7.9L205,158.2z"/>
	<path fill="#000319" d="M164.5,134.3h-4.9H159V146c-1.6-1.8-3.8-2.9-6.7-2.9h0c-6.3,0-9.5,5.1-9.5,11.6c0,6.5,3.3,11.6,9.5,11.6
		c2.9,0,5.1-1,6.7-2.7v2.1h5.8v-31.4H164.5z M154,161.7L154,161.7c-3.6,0-5.5-2.8-5.5-6.9c0-4.2,1.9-6.9,5.5-6.9l0,0
		c3.3,0,5.6,2.5,5.6,6.5v0.8C159.6,159.2,157.2,161.7,154,161.7z"/>
</g>
<g>
	<polygon fill="#000319" points="140.9,107.1 140.9,100.1 138.1,100.1 138.1,98.2 146,98.2 146,100.1 143,100.1 143,107.1 	"/>
	<g>
		<path fill="#000319" d="M113.7,105.4c-1.3,0-2.2-1.1-2.2-2.7c0-1.6,0.9-2.7,2.2-2.7c0.8,0,1.5,0.4,1.8,1.1l1.9-0.7
			c-0.6-1.5-1.9-2.4-3.8-2.4c-2.5,0-4.3,2-4.3,4.6c0,2.7,1.8,4.6,4.3,4.6c1.8,0,3.1-0.8,3.7-2.3l-1.9-0.7
			C115.1,105,114.5,105.4,113.7,105.4z"/>
	</g>
	<path fill="#000319" d="M134.6,78.8c-7.8,0-10.1-6.9-12.1-13c-2.2-6.6-3.9-10.6-8.7-10.6c-4.9,0-6.6,4-8.7,10.6
		c-2,6.1-4.3,13-12.1,13c-7.8,0-10.1-6.9-12.1-13c-2.2-6.6-3.9-10.6-8.7-10.6c-1,0-1.8-0.8-1.8-1.8c0-1,0.8-1.8,1.8-1.8
		c7.8,0,10.1,6.9,12.1,13c2.2,6.6,3.9,10.6,8.7,10.6c4.9,0,6.6-4,8.7-10.6c2-6.1,4.3-13,12.1-13c7.8,0,10.1,6.9,12.1,13
		c2.2,6.6,3.9,10.6,8.7,10.6c4.9,0,6.6-4,8.7-10.6c2-6.1,4.3-13,12.1-13c1,0,1.8,0.8,1.8,1.8c0,1-0.8,1.8-1.8,1.8
		c-4.9,0-6.6,4-8.7,10.6C144.7,71.9,142.4,78.8,134.6,78.8z"/>
	<path fill="#000319" d="M128,88.1c-1.2,0.2-2.1,0.1-2.8-0.4c-2.2-1.4-2.5-5.4-3.2-9.4l0,0c-0.9-5.7-2-12.9-8.4-12.9c0,0,0,0,0,0
		c-6.4,0-7.5,7.1-8.4,12.9c-0.6,4-1,8-3.2,9.4c-0.7,0.5-1.6,0.6-2.8,0.4c-3.9-0.8-4.4-6.3-4.7-14.5c-0.3-8.4-0.6-18-9.4-18
		c-1,0-1.8,0.8-1.8,1.8c0,1,0.8,1.8,1.8,1.8c5,0,5.6,5.5,5.8,14.6c0.2,7.7,0.5,16.4,7.5,17.9c0.6,0.1,1.2,0.2,1.8,0.2
		c1.4,0,2.7-0.4,3.8-1.1c3.1-2.2,3.9-7.1,4.6-11.8c1-6.2,1.8-9.9,4.9-9.9c0,0,0,0,0,0c3.1,0,3.9,3.7,4.9,9.9
		c0.7,4.7,1.5,9.6,4.6,11.8c1.5,1.1,3.4,1.4,5.5,1c7-1.4,7.3-10.2,7.5-17.9c0.3-9.1,0.8-14.6,5.8-14.6c1,0,1.8-0.8,1.8-1.8
		c0-1-0.8-1.8-1.8-1.8c-8.8,0-9.1,9.6-9.4,18C132.4,81.8,132,87.3,128,88.1L128,88.1z"/>
	<path fill="#000319" d="M143.9,79.3c-0.8-0.5-1.9-0.3-2.5,0.5L128,100.7l-12.8-15.5l-0.8-1c-0.2-0.2-0.4-0.3-0.7-0.3
		c-0.3,0-0.5,0.1-0.7,0.3l-0.6,0.7l-13,15.8L85.9,79.9c-0.5-0.8-1.6-1.1-2.5-0.5c-0.8,0.5-1.1,1.6-0.5,2.5L97,103.5l-2.5,3l-0.4,0.5
		c-0.7,0.9-1,2.1-1,3.2c0,1.5,0.6,3,1.7,4c1.1,1.1,2.5,1.7,4.1,1.7v0c3.1,0,5.7-2.6,5.7-5.7c0-1.1-0.3-2.2-0.9-3.1l-2.2-3.4
		l12.3-14.9l12.3,14.9l-2.2,3.5c-0.6,0.9-0.9,2-0.9,3.1c0,3.1,2.6,5.7,5.7,5.7v0c1.6,0,3-0.6,4.1-1.7c1.1-1.1,1.7-2.5,1.7-4
		c0-1.2-0.4-2.3-1-3.2l-2.9-3.6l14.1-21.7C145,81,144.7,79.9,143.9,79.3z M98.8,112.5L98.8,112.5c-0.6,0-1.1-0.2-1.5-0.7
		c-0.4-0.4-0.6-0.9-0.6-1.5c0-0.5,0.1-0.9,0.4-1.2l0.3-0.4l1.7-2.1l1.6,2.5c0.2,0.3,0.3,0.8,0.3,1.2C101,111.5,100,112.5,98.8,112.5
		z M130.7,110.4c0,0.6-0.2,1.1-0.6,1.5c-0.4,0.4-1,0.6-1.5,0.7v0c-1.2,0-2.2-1-2.2-2.2c0-0.4,0.1-0.8,0.3-1.2l1.6-2.5l1.7,2.1
		l0.3,0.4C130.6,109.5,130.7,109.9,130.7,110.4z"/>
	<path fill="#000319" d="M114.9,35.3l14.8,21.1l17.1-27c0.5-0.8,1.6-1.1,2.5-0.6c0.8,0.5,1.1,1.6,0.6,2.5l-18.7,29.5l-0.6,0.9
		c-0.2,0.2-0.4,0.4-0.7,0.4c-0.3,0-0.5-0.1-0.7-0.4l-0.6-0.9l-14.9-21.1L98.5,61.4l-0.3,0.4c-0.2,0.2-0.4,0.4-0.7,0.4
		c-0.3,0-0.6-0.2-0.7-0.4l-0.3-0.5l-19-29.9c-0.5-0.8-0.3-1.9,0.6-2.5c0.8-0.5,1.9-0.3,2.5,0.6l17.1,27l14.8-21l0.6-0.8
		c0.2-0.2,0.4-0.4,0.7-0.4c0.3,0,0.6,0.1,0.7,0.4L114.9,35.3z"/>
	<path fill="#000319" d="M114.7,9.4l14.7,32.9l7.4-23.2c0.3-0.9,1.3-1.5,2.2-1.2c0.9,0.3,1.5,1.3,1.2,2.2l-9.4,29.6l-0.1,0.3
		c-0.1,0.3-0.4,0.6-0.8,0.6c-0.3,0-0.6-0.2-0.8-0.5l-0.2-0.3l-15.3-34L98.6,49.5l-0.3,0.7c-0.1,0.3-0.4,0.5-0.8,0.5
		c-0.4,0-0.7-0.3-0.8-0.6l-0.2-0.6l-9.3-29.4c-0.3-0.9,0.2-1.9,1.2-2.2c0.9-0.3,1.9,0.2,2.2,1.2l7.3,23.2l14.8-32.9l0.2-0.5
		c0.1-0.3,0.4-0.5,0.8-0.5c0.4,0,0.7,0.2,0.8,0.5L114.7,9.4z"/>
	<path fill="#000319" d="M85.6,98.2h-2l-3.5,9h2.1l0.6-1.6h3.5l0.6,1.6H89L85.6,98.2z M83.5,103.8l1.1-2.9l1.1,2.9H83.5z"/>
</g>
<g>
	<path fill="#000319" d="M55.9,195.5c-3,0-5.1-2.2-5.1-5.3c0-3.2,2.1-5.3,5.1-5.3c3,0,5.1,2.2,5.1,5.3
		C61,193.4,58.9,195.5,55.9,195.5z M55.9,186c-2.2,0-3.7,1.6-3.7,4.1c0,2.5,1.4,4.1,3.7,4.1c2.2,0,3.6-1.6,3.6-4.1
		C59.5,187.7,58.1,186,55.9,186z"/>
	<path fill="#000319" d="M63.1,192.8c0.1,1.1,0.9,1.7,2.1,1.7c0.9,0,1.7-0.3,1.7-1.1c0-0.7-0.5-0.9-1.4-1.1l-1.2-0.2
		c-1.3-0.2-2.1-0.8-2.1-2c0-1.3,1.1-2.2,2.7-2.2c1.9,0,3,0.9,3.1,2.5l-1.1,0.1c-0.2-1.1-0.8-1.6-2-1.6c-0.9,0-1.5,0.4-1.5,1.1
		c0,0.6,0.4,0.9,1.1,1l1.3,0.2c1.4,0.2,2.3,0.8,2.3,2.1c0,1.4-1.3,2.2-2.9,2.2c-1.8,0-3.1-0.8-3.3-2.6L63.1,192.8z"/>
	<path fill="#000319" d="M70.9,185v10.3h-1.4V185H70.9z"/>
	<path fill="#000319" d="M75.9,195.5c-2.1,0-3.6-1.5-3.6-3.8c0-2.2,1.5-3.8,3.6-3.8c2.1,0,3.7,1.6,3.7,3.8
		C79.6,194,78,195.5,75.9,195.5z M75.9,194.5c1.5,0,2.3-1.1,2.3-2.7c0-1.6-0.8-2.7-2.3-2.7c-1.4,0-2.2,1.1-2.2,2.7
		C73.7,193.4,74.5,194.5,75.9,194.5z"/>
	<path fill="#000319" d="M84.6,191.6c0.1,1.9,1.4,2.8,3.1,2.8c1.5,0,2.5-0.7,2.5-1.8c0-0.9-0.6-1.4-2-1.7l-2-0.4
		c-1.5-0.3-2.6-1.1-2.6-2.7c0-1.8,1.4-3,3.7-3c2.6,0,4.1,1.4,4.1,3.7l-1.3,0.1c0-1.7-1.1-2.7-2.8-2.7c-1.5,0-2.3,0.7-2.3,1.8
		c0,1,0.7,1.3,1.9,1.6l1.9,0.4c1.9,0.4,2.8,1.2,2.8,2.8c0,1.9-1.6,3-3.9,3c-2.5,0-4.4-1.4-4.4-3.9L84.6,191.6z"/>
	<path fill="#000319" d="M96.4,188c2.1,0,3.2,1.4,3.4,3.1l-1.2,0.1c-0.1-1.3-0.9-2.1-2.2-2.1c-1.3,0-2.3,1-2.3,2.7
		c0,1.7,0.9,2.7,2.3,2.7c1.3,0,2.1-0.9,2.2-2.2l1.2,0.1c-0.1,1.7-1.3,3.1-3.4,3.1c-2.2,0-3.7-1.5-3.7-3.8S94.2,188,96.4,188z"/>
	<path fill="#000319" d="M102.5,195.3h-1.4V185h1.4v4.4c0.3-0.9,1.3-1.5,2.4-1.5c1.9,0,2.6,1.2,2.6,2.9v4.4h-1.4V191
		c0-1.2-0.6-1.9-1.7-1.9c-1.1,0-1.9,0.9-1.9,2.2V195.3z"/>
	<path fill="#000319" d="M112.4,195.5c-2.1,0-3.6-1.5-3.6-3.8c0-2.2,1.5-3.8,3.6-3.8c2.1,0,3.7,1.6,3.7,3.8
		C116.1,194,114.5,195.5,112.4,195.5z M112.4,194.5c1.5,0,2.3-1.1,2.3-2.7c0-1.6-0.8-2.7-2.3-2.7c-1.4,0-2.2,1.1-2.2,2.7
		C110.2,193.4,111,194.5,112.4,194.5z"/>
	<path fill="#000319" d="M120.7,195.5c-2.1,0-3.6-1.5-3.6-3.8c0-2.2,1.5-3.8,3.6-3.8c2.1,0,3.7,1.6,3.7,3.8
		C124.4,194,122.8,195.5,120.7,195.5z M120.7,194.5c1.5,0,2.3-1.1,2.3-2.7c0-1.6-0.8-2.7-2.3-2.7c-1.4,0-2.2,1.1-2.2,2.7
		C118.5,193.4,119.3,194.5,120.7,194.5z"/>
	<path fill="#000319" d="M127.1,185v10.3h-1.4V185H127.1z"/>
	<path fill="#000319" d="M135.1,195.5c-2.1,0-3.6-1.5-3.6-3.8c0-2.2,1.5-3.8,3.6-3.8c2.1,0,3.7,1.6,3.7,3.8
		C138.8,194,137.2,195.5,135.1,195.5z M135.1,194.5c1.5,0,2.3-1.1,2.3-2.7c0-1.6-0.8-2.7-2.3-2.7c-1.4,0-2.2,1.1-2.2,2.7
		C132.9,193.4,133.7,194.5,135.1,194.5z"/>
	<path fill="#000319" d="M139.3,189.2v-1h1.1v-0.8c0-1.5,0.9-2.5,2.4-2.5c1.2,0,1.9,0.6,2.2,1.6l-0.9,0.3c-0.2-0.6-0.6-1-1.2-1
		c-0.8,0-1.1,0.5-1.1,1.4v1h2v1h-2v6.2h-1.3v-6.2H139.3z"/>
	<path fill="#000319" d="M152.8,185l4.3,10.3h-1.5l-1.2-3h-4.7l-1.2,3H147l4.2-10.3H152.8z M150.1,191.2h3.8l-1.9-4.6h-0.1
		L150.1,191.2z"/>
	<path fill="#000319" d="M162.5,189.5c-0.4-0.2-0.7-0.3-1.1-0.3c-1,0-1.8,0.9-1.8,2.3v3.8h-1.4v-7.1h1.4v1.5c0.3-0.8,1-1.7,2-1.7
		c0.4,0,0.8,0.1,1,0.3L162.5,189.5z"/>
	<path fill="#000319" d="M164,189.2H163v-0.7l0.5-0.1c0.7-0.1,0.8-0.5,1-1.1l0.2-1h0.8v2h2v1h-2v4.3c0,0.6,0.3,0.9,0.9,0.9
		c0.5,0,0.9-0.2,1.3-0.4v0.9c-0.5,0.4-1,0.6-1.8,0.6c-1,0-1.7-0.5-1.7-1.9V189.2z"/>
	<path fill="#000319" d="M169.4,192.8c0.1,1.1,0.9,1.7,2.1,1.7c0.9,0,1.7-0.3,1.7-1.1c0-0.7-0.5-0.9-1.4-1.1l-1.2-0.2
		c-1.3-0.2-2.1-0.8-2.1-2c0-1.3,1.1-2.2,2.7-2.2c1.9,0,3,0.9,3.1,2.5l-1.1,0.1c-0.2-1.1-0.8-1.6-2-1.6c-0.9,0-1.5,0.4-1.5,1.1
		c0,0.6,0.4,0.9,1.1,1l1.3,0.2c1.4,0.2,2.3,0.8,2.3,2.1c0,1.4-1.3,2.2-2.9,2.2c-1.8,0-3.1-0.8-3.3-2.6L169.4,192.8z"/>
	<path fill="#000319" d="M175.6,193.7h1.6v1.6c0,1.1-0.3,1.8-1.6,1.8v-0.8c0.6,0,0.8-0.3,0.8-1h-0.8V193.7z"/>
	<path fill="#000319" d="M14.5,204.5c2.9,0,4.6,1.8,4.8,4.5l-1.4,0.1c-0.1-1.9-1.3-3.3-3.4-3.3c-2.1,0-3.6,1.6-3.6,4.1
		c0,2.5,1.5,4.1,3.6,4.1c2.1,0,3.3-1.4,3.4-3.3l1.4,0.1c-0.2,2.6-1.9,4.5-4.8,4.5c-2.8,0-5-2.2-5-5.3
		C9.4,206.6,11.6,204.5,14.5,204.5z"/>
	<path fill="#000319" d="M23.9,215.1c-2.1,0-3.6-1.5-3.6-3.8c0-2.2,1.5-3.8,3.6-3.8c2.1,0,3.7,1.6,3.7,3.8
		C27.6,213.6,26,215.1,23.9,215.1z M23.9,214.1c1.5,0,2.3-1.1,2.3-2.7c0-1.6-0.8-2.7-2.3-2.7c-1.4,0-2.2,1.1-2.2,2.7
		C21.7,213,22.5,214.1,23.9,214.1z"/>
	<path fill="#000319" d="M37.4,207.6c1.9,0,2.5,1.3,2.5,2.9v4.4h-1.4v-4.3c0-1.2-0.5-1.9-1.6-1.9c-1,0-1.8,0.8-1.8,2.2v4.1h-1.4
		v-4.3c0-1.2-0.5-1.9-1.6-1.9c-1,0-1.8,0.8-1.8,2.2v4.1H29v-7.1h1.4v1.3c0.3-0.9,1.2-1.5,2.3-1.5c1.3,0,2,0.6,2.3,1.6
		C35.3,208.3,36.2,207.6,37.4,207.6z"/>
	<path fill="#000319" d="M50,207.6c1.9,0,2.5,1.3,2.5,2.9v4.4h-1.4v-4.3c0-1.2-0.5-1.9-1.6-1.9c-1,0-1.8,0.8-1.8,2.2v4.1h-1.4v-4.3
		c0-1.2-0.5-1.9-1.6-1.9c-1,0-1.8,0.8-1.8,2.2v4.1h-1.4v-7.1H43v1.3c0.3-0.9,1.2-1.5,2.3-1.5c1.3,0,2,0.6,2.3,1.6
		C48,208.3,48.9,207.6,50,207.6z"/>
	<path fill="#000319" d="M59.1,207.8h1.4v7.1h-1.4v-1.3c-0.3,0.8-1.3,1.5-2.3,1.5c-1.9,0-2.5-1.2-2.5-2.9v-4.4h1.4v4.3
		c0,1.2,0.5,2,1.7,2c1.1,0,1.9-0.8,1.9-2.2V207.8z"/>
	<path fill="#000319" d="M63.7,214.9h-1.4v-7.1h1.4v1.3c0.3-0.9,1.3-1.5,2.4-1.5c1.9,0,2.6,1.2,2.6,2.9v4.4h-1.4v-4.3
		c0-1.2-0.6-1.9-1.7-1.9c-1.1,0-1.9,0.8-1.9,2.2V214.9z"/>
	<path fill="#000319" d="M70.4,204.6h1.4v1.5h-1.4V204.6z M71.8,207.8v7.1h-1.4v-7.1H71.8z"/>
	<path fill="#000319" d="M76.9,207.6c2.1,0,3.2,1.4,3.4,3.1l-1.2,0.1c-0.1-1.3-0.9-2.1-2.2-2.1c-1.3,0-2.3,1-2.3,2.7
		c0,1.7,0.9,2.7,2.3,2.7c1.3,0,2.1-0.9,2.2-2.2l1.2,0.1c-0.1,1.7-1.3,3.1-3.4,3.1c-2.2,0-3.7-1.5-3.7-3.8
		C73.2,209.1,74.7,207.6,76.9,207.6z"/>
	<path fill="#000319" d="M87.4,213.5c0,0.4,0.2,0.6,0.6,0.6c0.2,0,0.4,0,0.6-0.2v0.7c-0.2,0.2-0.5,0.4-1.1,0.4
		c-0.7,0-1.3-0.6-1.3-1.4c-0.4,0.8-1.4,1.5-2.6,1.5c-1.4,0-2.3-0.8-2.3-2c0-1.4,1.2-1.9,2.9-2.3l1.9-0.4v-0.3c0-1-0.6-1.6-1.6-1.6
		c-1,0-1.6,0.6-1.8,1.4l-1.2-0.2c0.3-1.3,1.3-2.3,3-2.3c1.8,0,2.9,0.9,2.9,2.7V213.5z M86.1,211.4l-1.6,0.3
		c-1.1,0.2-1.8,0.5-1.8,1.3c0,0.6,0.4,1.1,1.2,1.1c1.3,0,2.2-0.9,2.2-2.4V211.4z"/>
	<path fill="#000319" d="M89.8,208.8h-1.1V208l0.5-0.1c0.7-0.1,0.8-0.5,1-1.1l0.2-1h0.8v2h2v1h-2v4.3c0,0.6,0.3,0.9,0.9,0.9
		c0.5,0,0.9-0.2,1.3-0.4v0.9c-0.5,0.4-1,0.6-1.8,0.6c-1,0-1.7-0.5-1.7-1.9V208.8z"/>
	<path fill="#000319" d="M94.5,204.6h1.4v1.5h-1.4V204.6z M95.9,207.8v7.1h-1.4v-7.1H95.9z"/>
	<path fill="#000319" d="M100.9,215.1c-2.1,0-3.6-1.5-3.6-3.8c0-2.2,1.5-3.8,3.6-3.8c2.1,0,3.7,1.6,3.7,3.8
		C104.6,213.6,103,215.1,100.9,215.1z M100.9,214.1c1.5,0,2.3-1.1,2.3-2.7c0-1.6-0.8-2.7-2.3-2.7c-1.4,0-2.2,1.1-2.2,2.7
		C98.7,213,99.5,214.1,100.9,214.1z"/>
	<path fill="#000319" d="M107.3,214.9H106v-7.1h1.4v1.3c0.3-0.9,1.3-1.5,2.4-1.5c1.9,0,2.6,1.2,2.6,2.9v4.4H111v-4.3
		c0-1.2-0.6-1.9-1.7-1.9c-1.1,0-1.9,0.8-1.9,2.2V214.9z"/>
	<path fill="#000319" d="M122.8,213.5c0,0.4,0.2,0.6,0.6,0.6c0.2,0,0.4,0,0.6-0.2v0.7c-0.2,0.2-0.5,0.4-1.1,0.4
		c-0.7,0-1.3-0.6-1.3-1.4c-0.4,0.8-1.4,1.5-2.6,1.5c-1.4,0-2.3-0.8-2.3-2c0-1.4,1.2-1.9,2.9-2.3l1.9-0.4v-0.3c0-1-0.6-1.6-1.6-1.6
		c-1,0-1.6,0.6-1.8,1.4l-1.2-0.2c0.3-1.3,1.3-2.3,3-2.3c1.8,0,2.9,0.9,2.9,2.7V213.5z M121.5,211.4l-1.6,0.3
		c-1.1,0.2-1.8,0.5-1.8,1.3c0,0.6,0.4,1.1,1.2,1.1c1.3,0,2.2-0.9,2.2-2.4V211.4z"/>
	<path fill="#000319" d="M126.4,214.9H125v-7.1h1.4v1.3c0.3-0.9,1.3-1.5,2.4-1.5c1.9,0,2.6,1.2,2.6,2.9v4.4H130v-4.3
		c0-1.2-0.6-1.9-1.7-1.9c-1.1,0-1.9,0.8-1.9,2.2V214.9z"/>
	<path fill="#000319" d="M138.5,213.5c-0.3,0.9-1.2,1.7-2.6,1.7c-2.1,0-3.3-1.7-3.3-3.8s1.1-3.8,3.3-3.8c1.3,0,2.2,0.8,2.6,1.7v-4.7
		h1.4v10.3h-1.4V213.5z M138.5,211.2c0-1.6-1-2.5-2.3-2.5c-1.4,0-2.2,1-2.2,2.7c0,1.6,0.8,2.7,2.2,2.7c1.3,0,2.3-0.9,2.3-2.5V211.2z
		"/>
	<path fill="#000319" d="M147.8,214.9v-9.1h-3.7v-1.2h9v1.2h-3.8v9.1H147.8z"/>
	<path fill="#000319" d="M159.4,212.5c-0.4,1.6-1.6,2.6-3.3,2.6c-2.1,0-3.7-1.4-3.7-3.7c0-2.3,1.6-3.9,3.6-3.9
		c2.3,0,3.4,1.6,3.4,3.6v0.5h-5.7c0.1,1.4,1.1,2.4,2.3,2.4c1.2,0,1.9-0.6,2.2-1.7L159.4,212.5z M158.1,210.8c0-1.1-0.7-2.2-2-2.2
		c-1.3,0-2.1,1-2.2,2.2H158.1z"/>
	<path fill="#000319" d="M164.1,207.6c2.1,0,3.2,1.4,3.4,3.1l-1.2,0.1c-0.1-1.3-0.9-2.1-2.2-2.1c-1.3,0-2.3,1-2.3,2.7
		c0,1.7,0.9,2.7,2.3,2.7c1.3,0,2.1-0.9,2.2-2.2l1.2,0.1c-0.1,1.7-1.3,3.1-3.4,3.1c-2.2,0-3.7-1.5-3.7-3.8
		C160.4,209.1,161.9,207.6,164.1,207.6z"/>
	<path fill="#000319" d="M170.2,214.9h-1.4v-10.3h1.4v4.4c0.3-0.9,1.3-1.5,2.4-1.5c1.9,0,2.6,1.2,2.6,2.9v4.4h-1.4v-4.3
		c0-1.2-0.6-1.9-1.7-1.9c-1.1,0-1.9,0.8-1.9,2.2V214.9z"/>
	<path fill="#000319" d="M178.3,214.9H177v-7.1h1.4v1.3c0.3-0.9,1.3-1.5,2.4-1.5c1.9,0,2.6,1.2,2.6,2.9v4.4H182v-4.3
		c0-1.2-0.6-1.9-1.7-1.9c-1.1,0-1.9,0.8-1.9,2.2V214.9z"/>
	<path fill="#000319" d="M188.2,215.1c-2.1,0-3.6-1.5-3.6-3.8c0-2.2,1.5-3.8,3.6-3.8c2.1,0,3.7,1.6,3.7,3.8
		C191.9,213.6,190.4,215.1,188.2,215.1z M188.2,214.1c1.5,0,2.3-1.1,2.3-2.7c0-1.6-0.8-2.7-2.3-2.7c-1.4,0-2.2,1.1-2.2,2.7
		C186,213,186.8,214.1,188.2,214.1z"/>
	<path fill="#000319" d="M194.7,204.6v10.3h-1.4v-10.3H194.7z"/>
	<path fill="#000319" d="M199.7,215.1c-2.1,0-3.6-1.5-3.6-3.8c0-2.2,1.5-3.8,3.6-3.8c2.1,0,3.7,1.6,3.7,3.8
		C203.3,213.6,201.8,215.1,199.7,215.1z M199.7,214.1c1.5,0,2.3-1.1,2.3-2.7c0-1.6-0.8-2.7-2.3-2.7c-1.4,0-2.2,1.1-2.2,2.7
		C197.5,213,198.3,214.1,199.7,214.1z"/>
	<path fill="#000319" d="M207.6,212.5c-0.6,0-1.1-0.1-1.6-0.3c-0.2,0.1-0.5,0.4-0.5,0.7c0,0.4,0.2,0.6,0.9,0.6h2.8
		c1.6,0,2.4,0.8,2.4,1.9c0,1.8-2,2.5-4.1,2.5c-1.9,0-3.5-0.6-3.5-1.9c0-0.8,0.6-1.3,1.5-1.5c-0.7-0.2-0.9-0.7-0.9-1.2
		c0-0.6,0.4-1.1,1.1-1.3c-0.6-0.4-0.9-1.1-0.9-1.8c0-1.5,1.2-2.4,3-2.4c0.9,0,1.7,0.3,2.2,0.7c0.4-0.6,1-1,1.8-1v1.2
		c-0.5,0-1,0.1-1.4,0.3c0.2,0.3,0.3,0.8,0.3,1.2C210.6,211.5,209.4,212.5,207.6,212.5z M207.5,217c1.6,0,2.8-0.4,2.8-1.4
		c0-0.7-0.5-0.9-1.4-0.9h-2.3c-0.7,0-1.4,0.2-1.4,1C205.2,216.6,206.2,217,207.5,217z M207.6,208.5c-1,0-1.6,0.6-1.6,1.6
		c0,1,0.6,1.5,1.6,1.5c1,0,1.6-0.6,1.6-1.5C209.3,209,208.6,208.5,207.6,208.5z"/>
	<path fill="#000319" d="M213.6,217.7l1.2-2.8l-3-7.1h1.4l2.3,5.5h0.1l2.2-5.5h1.3l-4.1,9.9H213.6z"/>
</g>
</svg>
